<svg width="1396" height="1110" viewBox="0 0 1396 1110" fill="none" xmlns="http://www.w3.org/2000/svg">
<path d="M846.882 335.188C848.618 335.271 850.336 334.795 851.804 333.825C853.272 332.854 854.419 331.436 855.089 329.762C855.759 328.088 855.92 326.24 855.551 324.467C855.181 322.694 854.299 321.083 853.023 319.852C852.809 318.965 852.656 318.328 852.443 317.441C852.519 317.248 852.596 317.055 852.673 316.863C860.474 297.439 886.914 297.573 894.648 317.026C901.514 334.291 910.254 351.586 912.406 369.841C913.354 377.91 912.954 386.09 911.225 394.016C927.349 357.288 935.722 317.369 935.776 276.966C935.78 266.827 935.24 256.696 934.16 246.621C933.268 238.361 932.03 230.159 930.446 222.017C921.804 177.837 903.248 136.427 876.303 101.189C863.262 93.7592 852.715 82.3334 846.084 68.4515C843.682 63.4615 841.984 58.1346 841.043 52.6366C842.515 52.8381 846.591 29.443 845.481 28.0076C847.531 24.7591 851.201 23.1443 853.44 19.9744C864.576 4.20925 879.918 6.96194 887.927 28.3855C905.037 37.4025 905.203 52.3566 894.704 66.7389C888.025 75.8891 887.107 88.2703 881.247 98.0663C881.85 98.8723 882.477 99.653 883.08 100.459C894.102 115.258 903.708 131.149 911.761 147.904C909.482 129.321 912.846 106.933 918.581 92.5012C925.108 76.058 937.343 62.2095 948.118 47.9944C961.06 30.9199 987.599 38.3715 989.879 60.0162C989.901 60.2258 989.922 60.4353 989.943 60.6447C988.343 61.5874 986.777 62.588 985.244 63.6466C983.318 64.99 981.826 66.9094 980.963 69.1533C980.1 71.3973 979.906 73.8611 980.407 76.222C980.908 78.5829 982.08 80.7307 983.77 82.3841C985.46 84.0374 987.589 85.1192 989.878 85.4876L990.112 85.5254C989.542 91.5481 988.534 97.517 987.098 103.38C1000.92 159.197 971.078 179.527 928.469 180.44C927.528 180.944 926.611 181.447 925.671 181.926C933.762 205.868 938.837 230.806 940.768 256.115C941.862 271.046 941.797 286.045 940.575 300.965L940.648 300.436C943.735 283.845 952.211 268.875 964.644 258.054C983.111 242.213 1009.2 236.38 1029.12 223.648C1038.71 217.519 1051 225.439 1049.33 237.049C1049.3 237.234 1049.28 237.42 1049.25 237.605C1046.28 238.868 1043.39 240.323 1040.59 241.962C1038.99 242.905 1037.42 243.905 1035.89 244.964C1033.96 246.307 1032.47 248.226 1031.61 250.47C1030.75 252.714 1030.55 255.178 1031.05 257.539C1031.55 259.9 1032.73 262.048 1034.42 263.701C1036.11 265.355 1038.24 266.436 1040.52 266.805L1040.76 266.842C1040.93 266.868 1041.07 266.893 1041.24 266.918C1036.17 279.57 1029.04 291.215 1020.19 301.343C1011.54 350.069 974.423 354.692 934.715 340.503H934.691C930.334 360.271 924.022 379.514 915.855 397.92H848.568C848.327 397.139 848.11 396.333 847.893 395.552C854.121 395.961 860.374 395.572 866.511 394.394C861.519 387.998 856.527 381.551 851.534 375.154C851.423 375.035 851.318 374.908 851.221 374.776C848.689 371.503 846.132 368.254 843.6 364.98L843.599 364.976C843.464 354.941 844.566 344.93 846.88 335.189L846.882 335.188Z" fill="#F2F2F2"/>
<path d="M1062.92 155.376C1050.41 107.746 1151.32 66.9017 1177.82 105.259C1181.5 99.8054 1195.12 96.493 1201.37 98.1659C1207.61 99.8387 1212.87 104.021 1218 108.069C1225.04 113.723 1232.35 119.578 1236.68 127.708C1241.03 135.804 1241.71 146.845 1235.84 153.871C1231.2 159.458 1217.48 163.071 1210.5 164.543C1205.63 165.58 1201.53 166.417 1198 167.019C1194.8 162.203 1193.33 156.363 1193.84 150.525C1191.47 152.196 1189.48 154.394 1188.01 156.963C1186.55 159.531 1185.65 162.405 1185.38 165.38C1185.28 166.617 1224.76 318.275 1224.76 318.275C1220.01 321.093 1215.02 323.435 1209.86 325.267C1199.64 308.954 1191.81 291.137 1186.63 272.406C1185.44 284.931 1185.59 297.555 1187.08 310.044C1187.87 317.048 1189 324.005 1190.47 330.888C1143.57 341.46 1073.01 337.981 1042.32 293.015C1042.31 292.829 1042.31 292.643 1042.3 292.457C1042.28 290.682 1041.66 288.971 1040.57 287.617C1039.47 286.263 1037.95 285.35 1036.28 285.035C1034.6 284.719 1032.88 285.021 1031.4 285.888C1029.91 286.756 1028.76 288.134 1028.15 289.789C1027.4 291.772 1026.72 293.49 1026.11 294.855C1017.17 261.466 1028.73 222.824 1062.92 155.376Z" fill="#2F2E41"/>
<path d="M983.098 953.916V955.476C983.039 954.958 983.039 954.434 983.098 953.916V953.916Z" fill="#2F2E41"/>
<path d="M1029.03 684.36C1030.23 684.023 1031.44 683.776 1032.67 683.623C1031.26 683.863 1030.05 684.108 1029.03 684.36Z" fill="#2F2E41"/>
<path d="M1027.97 684.643C1028.29 684.548 1028.65 684.454 1029.03 684.36C1028.68 684.457 1028.34 684.528 1027.97 684.643Z" fill="#2F2E41"/>
<path d="M1367.35 1109.99H1195.41C1192.96 1107.95 1191.26 1105.09 1190.59 1101.88C1189.92 1098.68 1190.32 1095.34 1191.73 1092.41C1196.43 1081.16 1187.23 1070.88 1187.23 1070.88C1184.1 1067.06 1181.93 1062.49 1180.9 1057.58C1179.87 1052.67 1180.02 1047.58 1181.33 1042.74C1185.89 1026.13 1168.04 979.234 1168.04 979.234C1168.04 979.234 1158.41 1039.78 1146.62 1109.99H983.098C980.359 1105.12 978.914 1099.57 978.914 1093.92C978.914 1088.27 980.359 1082.73 983.098 1077.86C992.628 1060.98 983.098 1057.75 983.098 1057.75C983.098 1057.75 973.569 1038.87 983.098 1025.16C992.628 1011.45 983.098 955.476 983.098 955.476C983.457 957.951 986.172 953.451 990.352 944.017C996.715 929.663 1006.44 903.85 1016.26 873.883C1023.29 852.494 1030.37 828.961 1036.29 805.953H1036.3C1037.85 799.909 1039.32 793.919 1040.71 787.985C1043.43 776.346 1045.75 765.036 1047.52 754.417C1051.36 731.544 1052.62 711.896 1049.68 699.117C1047.23 688.483 1041.89 682.618 1032.67 683.623C1037.61 682.768 1044.85 681.958 1053.77 681.193C1055.38 681.058 1057.04 680.923 1058.77 680.773C1125.3 675.524 1268.05 672.509 1268.05 672.509L1311.78 754.267L1367.15 857.834C1367.15 857.834 1365.64 996.768 1367.35 1109.99Z" fill="#2F2E41"/>
<path d="M1183.83 319.134L1083.1 296.822L1063.09 338.861L995.737 379.58C995.737 379.58 1039.15 564.948 1038.91 591.019C1038.28 657.209 936.853 805.587 1013.46 794.172C1090.07 782.758 1105.63 734.945 1130.23 742.505C1152.41 749.323 1179.49 779.655 1197.62 757.962C1215.76 736.269 1222.14 761.319 1233.61 762.184C1239.06 762.596 1235.77 734.792 1249.48 763.048C1263.19 791.305 1335.89 753.269 1311.25 727.541C1270.21 684.694 1261.87 368.837 1261.87 368.837L1216.2 354.161L1183.83 319.134Z" fill="#E6E6E6"/>
<path d="M993.832 992.311C997.88 987.271 999.884 980.781 999.419 974.222C998.954 967.662 996.056 961.551 991.342 957.189C990.371 956.318 989.332 955.532 988.236 954.841L1005.08 868.526L966.142 844.192L955.311 965.037C952.915 970.003 952.161 975.658 953.167 981.119C954.172 986.58 956.88 991.54 960.869 995.225C963.158 997.299 965.816 998.881 968.691 999.883C971.566 1000.88 974.601 1001.28 977.624 1001.06C980.647 1000.84 983.598 999.994 986.309 998.579C989.02 997.165 991.438 995.207 993.424 992.816C993.562 992.65 993.698 992.481 993.832 992.311Z" fill="#A0616A"/>
<path d="M1114.73 537.34C1114.49 534.565 1111.1 533.305 1106.4 531.565C1101.68 530.048 1097.2 527.83 1093.08 524.981C1082.68 517.136 1086.78 508.932 1092.44 497.593C1093.54 495.388 1094.69 493.093 1095.77 490.709C1098.97 483.644 1093.87 454.501 1080.59 404.076C1076.49 388.552 1076.51 377.588 1073.68 370.313C1070.86 363.039 1065.22 359.454 1049.83 358.704C1031.24 357.724 1013.03 364.482 999.2 377.498C998.827 377.843 998.439 378.218 998.066 378.578C997.362 379.268 996.672 379.973 995.997 380.692C983.207 394.128 975.888 412.207 975.571 431.148L975.5 434.373L972.325 588.441L963.405 723.64L951.109 909.88L960.216 910.345L996.557 912.234L1000.97 912.459L1011.42 866.653L1024.01 811.533L1028.63 791.284L1042.98 728.469L1049.68 699.117L1053.77 681.193L1055.44 673.874L1063.57 638.297C1063.75 637.547 1082.45 560.498 1104.02 547.614C1112.06 542.814 1114.96 540.024 1114.73 537.34Z" fill="#E6E6E6"/>
<path d="M1356.64 991.393C1352.1 986.836 1349.44 980.609 1349.22 974.035C1349.01 967.461 1351.26 961.061 1355.5 956.195C1356.38 955.22 1357.33 954.323 1358.35 953.512L1332.73 869.586L1368.93 841.026L1392.13 959.957C1395.02 964.626 1396.36 970.164 1395.92 975.706C1395.48 981.248 1393.3 986.483 1389.71 990.593C1387.65 992.912 1385.17 994.784 1382.41 996.102C1379.66 997.42 1376.68 998.158 1373.65 998.275C1370.62 998.391 1367.6 997.884 1364.76 996.782C1361.92 995.679 1359.32 994.003 1357.1 991.85C1356.94 991.7 1356.79 991.547 1356.64 991.393Z" fill="#A0616A"/>
<path d="M1374.35 809.282C1374.35 809.282 1346.11 705.53 1354.72 694.298C1363.34 683.067 1337.9 680.873 1348.86 659.955C1359.82 639.038 1344.69 635.539 1344.69 635.539L1336.48 587.444L1321.81 469.312L1321.36 465.798L1317.09 431.43C1315.9 421.613 1312.82 412.149 1308.05 403.602C1303.27 395.055 1296.9 387.602 1289.3 381.687C1288.91 381.377 1288.51 381.079 1288.12 380.781C1286.31 379.423 1284.47 378.164 1282.58 377.005C1268.49 368.327 1251.95 365.045 1235.79 367.726C1205.35 372.676 1214.83 384.529 1209.89 416.283C1201.87 467.914 1199.78 497.453 1203.7 504.127C1205.01 506.374 1206.4 508.525 1207.72 510.589C1214.52 521.242 1219.43 528.928 1209.89 537.911C1206.09 541.193 1201.86 543.895 1197.33 545.935C1192.85 548.201 1189.6 549.827 1189.65 552.614C1189.7 555.313 1192.87 557.751 1201.35 561.616C1211.63 566.315 1222.68 584.08 1231.72 602.227C1238.9 616.855 1245.3 631.884 1250.9 647.246L1328.65 875.573L1341.33 912.809L1345.7 912.087L1381.63 906.14L1390.64 904.651L1374.35 809.282Z" fill="#E6E6E6"/>
<path d="M1141.33 295.245C1186.72 295.245 1223.52 256.823 1223.52 209.428C1223.52 162.033 1186.72 123.611 1141.33 123.611C1095.94 123.611 1059.15 162.033 1059.15 209.428C1059.15 256.823 1095.94 295.245 1141.33 295.245Z" fill="#A0616A"/>
<path d="M1018.06 162.067C1005.55 114.437 1106.46 73.593 1132.96 111.95C1136.64 106.497 1150.26 103.184 1156.51 104.857C1162.76 106.53 1168.01 110.712 1173.14 114.76C1180.19 120.414 1187.49 126.269 1191.82 134.399C1196.18 142.495 1196.85 153.536 1190.99 160.562C1186.34 166.149 1172.63 169.762 1165.64 171.234C1160.77 172.272 1156.67 173.108 1153.15 173.71C1149.94 168.894 1148.47 163.055 1148.98 157.216C1146.61 158.887 1144.62 161.086 1143.16 163.654C1141.69 166.222 1140.79 169.097 1140.52 172.071C1140.43 173.309 1179.9 324.966 1179.9 324.966C1175.16 327.785 1170.17 330.126 1165 331.958C1154.78 315.645 1146.95 297.828 1141.77 279.097C1140.58 291.622 1140.73 304.246 1142.22 316.736C1143.01 323.739 1144.14 330.696 1145.62 337.579C1098.71 348.151 1028.16 344.672 997.461 299.707C997.455 299.521 997.45 299.334 997.445 299.148C997.421 297.373 996.807 295.662 995.708 294.308C994.609 292.954 993.093 292.041 991.42 291.726C989.747 291.411 988.021 291.713 986.538 292.58C985.055 293.447 983.907 294.826 983.29 296.48C982.545 298.464 981.86 300.181 981.248 301.547C972.309 268.157 983.876 229.515 1018.06 162.067Z" fill="#2F2E41"/>
<path d="M610.473 458.602C608.738 458.685 607.02 458.21 605.552 457.239C604.084 456.269 602.937 454.85 602.267 453.177C601.596 451.503 601.435 449.654 601.805 447.882C602.174 446.109 603.056 444.498 604.332 443.266C604.546 442.379 604.699 441.743 604.913 440.856C604.836 440.663 604.759 440.47 604.682 440.277C596.881 420.853 570.442 420.987 562.707 440.44C555.842 457.705 547.101 475 544.949 493.255C544.001 501.324 544.401 509.504 546.131 517.431C530.006 480.703 521.633 440.784 521.579 400.381C521.576 390.242 522.115 380.111 523.195 370.035C524.088 361.775 525.326 353.574 526.909 345.432C535.552 301.251 554.108 259.842 581.053 224.604C594.094 217.174 604.64 205.748 611.271 191.866C613.674 186.876 615.371 181.549 616.312 176.051C614.841 176.253 610.765 152.858 611.874 151.422C609.824 148.174 606.155 146.559 603.916 143.389C592.78 127.624 577.437 130.377 569.428 151.8C552.318 160.817 552.152 175.771 562.651 190.154C569.33 199.304 570.248 211.685 576.108 221.481C575.505 222.287 574.878 223.068 574.275 223.874C563.254 238.672 553.648 254.563 545.595 271.319C547.873 252.735 544.509 230.347 538.775 215.916C532.247 199.473 520.012 185.624 509.238 171.409C496.296 154.335 469.757 161.786 467.477 183.431C467.455 183.64 467.433 183.85 467.412 184.059C469.012 185.002 470.579 186.003 472.112 187.061C474.037 188.405 475.529 190.324 476.392 192.568C477.255 194.812 477.449 197.276 476.948 199.637C476.447 201.998 475.275 204.145 473.585 205.799C471.895 207.452 469.766 208.534 467.478 208.902L467.243 208.94C467.813 214.963 468.821 220.932 470.258 226.795C456.436 282.612 486.277 302.941 528.887 303.855C529.827 304.358 530.744 304.862 531.685 305.34C523.594 329.282 518.519 354.221 516.587 379.529C515.494 394.46 515.558 409.46 516.78 424.38L516.708 423.851C513.621 407.26 505.144 392.29 492.711 381.468C474.244 365.628 448.154 359.795 428.232 347.063C418.642 340.934 406.353 348.854 408.026 360.464C408.053 360.649 408.08 360.834 408.108 361.02C411.078 362.283 413.969 363.738 416.766 365.376C418.366 366.319 419.933 367.32 421.466 368.378C423.391 369.722 424.883 371.641 425.746 373.885C426.609 376.129 426.803 378.593 426.302 380.954C425.801 383.315 424.629 385.463 422.939 387.116C421.249 388.769 419.12 389.851 416.831 390.219L416.597 390.257C416.428 390.282 416.283 390.307 416.115 390.333C421.189 402.984 428.311 414.629 437.169 424.758C445.812 473.484 482.933 478.107 522.641 463.917H522.665C527.021 483.686 533.334 502.928 541.5 521.334H608.787C609.029 520.554 609.246 519.748 609.463 518.967C603.234 519.376 596.982 518.987 590.844 517.809C595.836 511.412 600.829 504.965 605.821 498.569C605.932 498.449 606.037 498.323 606.134 498.191C608.667 494.917 611.223 491.669 613.755 488.395L613.757 488.391C613.892 478.356 612.789 468.345 610.476 458.604L610.473 458.602Z" fill="#F2F2F2"/>
<path d="M296.507 105.26C294.98 108.977 247.891 108.578 245.735 111.887C229.107 137.434 289.047 246.13 272.419 271.711L270.103 274.593C275.527 271.983 280.738 268.913 285.683 265.415C286.128 254.944 286.572 244.44 287.048 233.97C292.028 240.623 296.048 248.002 298.979 255.872C302.851 253.022 306.027 247.74 322.62 237.35C329.338 229.644 337.083 222.987 345.616 217.584L296.507 105.26Z" fill="#2F2E41"/>
<path d="M330.701 314.632C325.504 311.097 319.576 308.908 313.407 308.245C307.238 307.582 301.006 308.464 295.229 310.82C289.452 313.175 284.297 316.935 280.19 321.787C276.083 326.639 273.144 332.445 271.616 338.721L200.059 533.409L77.0593 460.493C76.5192 452.112 73.4511 444.125 68.2949 437.677C63.1387 431.23 56.1595 426.652 48.3581 424.603C40.5567 422.553 32.3339 423.135 24.8692 426.267C17.4045 429.398 11.0813 434.918 6.80656 442.034C2.53179 449.15 0.525068 457.497 1.0742 465.877C1.62333 474.258 4.70011 482.241 9.86324 488.683C15.0264 495.125 22.0106 499.694 29.8142 501.734C37.6178 503.775 45.8399 503.183 53.3012 500.042C79.2038 528.909 191.501 647.264 237.991 601.02C277.069 562.15 333.462 411.502 347.037 359.48C349.211 351.162 348.801 342.337 345.865 334.278C342.93 326.218 337.62 319.339 330.701 314.632V314.632Z" fill="#FFB6B6"/>
<path d="M196.335 609.179L218.916 715.753L384.039 731.349L399.214 638.551L196.335 609.179Z" fill="#FFB6B6"/>
<path d="M448.563 882.476C448.487 884.003 448.397 885.516 448.291 887.043C446.708 909.126 444.897 934.595 442.937 962.505C439.844 1006.8 436.39 1057.23 432.906 1109.99H86.5596L153.73 899.178C153.73 899.178 180.852 883.585 167.043 857.392C153.235 831.199 180.405 852.072 180.657 814.664C180.91 777.257 205.256 737.46 205.256 737.46L209.254 680.821L211.531 680.868L391.771 684.002L395.06 684.065L400.595 732.687C434.208 774.452 451.356 828 448.563 882.476V882.476Z" fill="#2F2E41"/>
<path d="M299.394 262.983L381.583 258.562L419.758 321.548C419.758 321.548 491.585 334.087 486.606 422.466C481.627 510.845 399.214 588.398 399.214 588.398L402.737 575.786L396.619 594.041L397.403 604.292L405.75 615.147L406.609 626.373L399.214 644.135C400.176 645.745 400.686 647.604 400.687 649.501C400.689 651.398 400.181 653.257 399.221 654.868C398.261 656.479 396.889 657.777 395.258 658.614C393.628 659.452 391.806 659.795 389.998 659.606L271.241 647.179C268.537 639.412 266.368 630.12 255.53 645.589L244.343 644.458L197.838 639.753L195.1 629.341C193.545 623.425 193.303 617.216 194.392 611.187C195.481 605.159 197.872 599.469 201.385 594.551V594.551C197.345 581.343 198.403 567.01 204.333 554.605L204.556 554.139L209.494 549.841C209.494 549.841 155.464 465.082 217.489 401.243L242.383 357.053L270.237 321.568L299.394 262.983Z" fill="#66A80F"/>
<path d="M319.849 225.802C362.893 225.802 397.787 189.366 397.787 144.42C397.787 99.4737 362.893 63.0377 319.849 63.0377C276.805 63.0377 241.911 99.4737 241.911 144.42C241.911 189.366 276.805 225.802 319.849 225.802Z" fill="#FFB6B6"/>
<path d="M379.044 261.657C372.697 256.119 368.279 248.548 366.477 240.119C365.036 250.353 365.412 260.776 367.588 270.868C363.368 274.181 359.274 277.329 355.403 280.179C352.472 272.309 348.452 264.93 343.471 258.277C342.995 268.747 342.551 279.251 342.107 289.722C337.162 293.22 331.951 296.29 326.526 298.9L328.842 296.017C345.47 270.437 302.441 223.353 319.069 197.806C323.734 190.649 302.663 134.088 286.606 131.536C272.327 129.283 272.93 133.591 259.094 136.738C257.657 130.481 255.427 124.453 252.462 118.812C253.251 125.098 253.069 131.474 251.923 137.699C247.004 137.898 243.134 134.625 237.897 133.789C204.482 128.455 207.878 90.7143 217.175 78.7525C226.505 66.824 257.476 63.2454 271.756 59.3685C273.056 58.0432 276.008 58.8716 277.309 57.6124C304.675 31.4607 341.276 27.1298 374.213 38.7208C409.338 51.0818 431.237 75.0057 442.477 111.887L445.701 141.402C448.593 150.892 444.955 195.048 442.477 204.665C432.846 242.047 412.335 223.386 379.044 261.657Z" fill="#2F2E41"/>
<path d="M492.685 647.224L489.616 397.696C489.456 387.124 485.322 377.043 478.106 369.626C470.891 362.209 461.171 358.052 451.046 358.052H451.046C445.808 358.052 440.625 359.166 435.813 361.326C431 363.486 426.66 366.647 423.055 370.616C419.451 374.584 416.659 379.278 414.848 384.41C413.038 389.543 412.247 395.006 412.525 400.468L423.322 659.565L423.527 817.291C417.164 820.109 411.785 824.904 408.122 831.025C404.459 837.146 402.69 844.296 403.054 851.503C403.418 858.711 405.899 865.627 410.158 871.311C414.418 876.996 420.25 881.173 426.862 883.276C433.475 885.379 440.547 885.305 447.118 883.065C453.688 880.824 459.44 876.526 463.59 870.754C467.74 864.982 470.087 858.016 470.314 850.802C470.54 843.589 468.635 836.477 464.855 830.434L492.685 647.224Z" fill="#FFB6B6"/>
<path d="M894.932 970.055C894.932 970.055 890.188 1059.17 888.007 1110H724.635C721.273 1063.75 720.141 1029.76 720.141 1029.76L711.201 1110H546.065L535.828 961.398L585.302 833.343C585.302 833.343 853.415 813.926 878.285 838.557C903.139 863.171 894.932 970.055 894.932 970.055Z" fill="#2F2E41"/>
<path d="M750.464 220.375C799.749 220.375 839.703 178.656 839.703 127.194C839.703 75.7311 799.749 34.0123 750.464 34.0123C701.179 34.0123 661.226 75.7311 661.226 127.194C661.226 178.656 701.179 220.375 750.464 220.375Z" fill="#FFB6B6"/>
<path d="M854.481 96.9155C845.315 101.28 839.376 132.887 832.171 125.539C824.967 118.191 825.448 108.629 815.735 105.917C807.891 103.718 799.45 106.231 792.296 110.195C791.018 110.895 789.78 111.655 788.573 112.412C787.776 111.856 786.983 111.333 786.132 110.85C779.732 107.274 772.263 106.397 765.262 108.399C770.794 110.334 775.603 114.035 779.01 118.98C776.616 120.655 774.19 122.335 771.709 123.824C750.984 136.313 721.492 109.156 699.677 98.9542C713.341 125.73 706.613 136.819 694.748 164.511L694.338 166.088C695.012 159.147 674.445 153.975 675.637 163.745C676.484 170.682 682.233 186.1 685.453 192.225C662.517 164.532 646.842 130.643 650.15 95.6838C650.87 88.34 650.653 80.5915 654.28 74.2175C657.912 67.8764 665.482 63.4265 672.18 65.8446C671.613 54.6958 673.949 43.5948 678.941 33.7217C683.933 23.8487 691.394 15.5727 700.53 9.77353C709.667 3.97439 720.138 0.868892 730.83 0.787178C741.521 0.705464 752.035 3.65061 761.252 9.30947C769.816 14.557 776.966 21.9786 784.815 28.3803C792.665 34.782 801.714 40.3621 811.667 40.8906C817.982 41.2086 824.853 39.5989 830.278 43.0138C836.562 46.9763 837.638 55.2725 838.581 63.2554C832.976 63.8324 827.663 66.1412 823.321 69.8868C829.12 69.2691 834.959 70.5766 840.005 73.6234C840.101 73.6687 840.192 73.723 840.278 73.7856C843.601 86.9788 843.26 89.9035 854.481 96.9155Z" fill="#2F2E41"/>
<path d="M546.461 878.424C622.455 785.541 596.787 667.402 566.625 548.146L572.365 371.97C572.646 363.328 574.915 354.883 578.98 347.349C583.044 339.816 588.786 333.414 595.718 328.685L673.298 275.762L703.494 230.175L786.728 238.867L832.884 289.835L883.974 330.562C896.801 340.787 906.562 354.63 912.105 370.457C917.647 386.284 918.741 403.435 915.256 419.89L866.365 650.763C866.365 650.763 886.814 770.449 874.337 783.668C861.859 796.886 829.709 783.674 855.205 798.513C885.801 816.32 913.621 813.034 898.137 829.202C882.654 845.369 902.25 867.847 902.25 867.847L546.461 878.424Z" fill="#66A80F"/>
<path d="M578.953 1013.41L591.622 919.166L541.07 904.097L531.071 1004.24C526.887 1008.25 523.857 1013.39 522.32 1019.1C520.783 1024.8 520.8 1030.84 522.371 1036.54C523.941 1042.23 527.001 1047.36 531.208 1051.34C535.415 1055.31 540.602 1057.99 546.184 1059.06C551.767 1060.13 557.525 1059.55 562.811 1057.39C568.096 1055.23 572.7 1051.57 576.105 1046.83C579.509 1042.09 581.58 1036.45 582.083 1030.55C582.586 1024.64 581.502 1018.71 578.953 1013.41V1013.41Z" fill="#FFB6B6"/>
<path d="M675.195 292.752C675.195 292.752 531.303 341.653 527.872 377.434C524.44 413.215 525.578 435.118 510.392 578.297L511.192 963.982C511.192 963.982 607.663 985.549 597.769 962.49C587.876 939.43 591.328 928.581 591.328 928.581C591.328 928.581 612.011 920.058 606.834 892.983C601.656 865.908 627.621 731.731 627.621 731.731L644.009 491.092L675.195 292.752Z" fill="#66A80F"/>
<path d="M852.617 1008.42L845.875 913.512L897.262 901.925L900.97 1002.54C904.894 1006.82 907.596 1012.16 908.773 1017.96C909.949 1023.76 909.554 1029.78 907.63 1035.36C905.707 1040.93 902.332 1045.84 897.885 1049.52C893.438 1053.21 888.095 1055.52 882.457 1056.21C876.82 1056.89 871.11 1055.92 865.971 1053.41C860.832 1050.89 856.467 1046.93 853.366 1041.96C850.266 1037 848.553 1031.23 848.421 1025.3C848.288 1019.38 849.741 1013.53 852.617 1008.42H852.617Z" fill="#FFB6B6"/>
<path d="M801.693 282.733C801.693 282.733 942.217 341.351 943.4 377.289C944.584 413.228 942.078 435.007 948.269 578.916L923.327 963.721C923.327 963.721 825.713 978.658 837.029 956.323C848.344 933.988 845.579 922.927 845.579 922.927C845.579 922.927 825.473 913.01 832.334 886.346C839.196 859.682 821.686 724.02 821.686 724.02L820.397 482.777L801.693 282.733Z" fill="#66A80F"/>
</svg>
